<svg xmlns="http://www.w3.org/2000/svg" xmlns:xlink="http://www.w3.org/1999/xlink" width="500" zoomAndPan="magnify" viewBox="0 0 375 374.999991" height="500" preserveAspectRatio="xMidYMid meet" version="1.0"><defs><clipPath id="86e917d899"><path d="M 52.027344 52.027344 L 322.972656 52.027344 L 322.972656 322.972656 L 52.027344 322.972656 Z M 52.027344 52.027344 " clip-rule="nonzero"/></clipPath><clipPath id="b74f2d4d75"><path d="M 69.277344 52.027344 L 305.722656 52.027344 C 310.296875 52.027344 314.683594 53.84375 317.921875 57.078125 C 321.15625 60.316406 322.972656 64.703125 322.972656 69.277344 L 322.972656 305.722656 C 322.972656 310.296875 321.15625 314.683594 317.921875 317.921875 C 314.683594 321.15625 310.296875 322.972656 305.722656 322.972656 L 69.277344 322.972656 C 64.703125 322.972656 60.316406 321.15625 57.078125 317.921875 C 53.84375 314.683594 52.027344 310.296875 52.027344 305.722656 L 52.027344 69.277344 C 52.027344 64.703125 53.84375 60.316406 57.078125 57.078125 C 60.316406 53.84375 64.703125 52.027344 69.277344 52.027344 Z M 69.277344 52.027344 " clip-rule="nonzero"/></clipPath><clipPath id="237622c534"><path d="M 77 110 L 108 110 L 108 267.304688 L 77 267.304688 Z M 77 110 " clip-rule="nonzero"/></clipPath><clipPath id="5399fcb392"><path d="M 262 110 L 298 110 L 298 267.304688 L 262 267.304688 Z M 262 110 " clip-rule="nonzero"/></clipPath></defs><g clip-path="url(#86e917d899)"><g clip-path="url(#b74f2d4d75)"><path fill="#1b1b1b" d="M 52.027344 52.027344 L 322.972656 52.027344 L 322.972656 322.972656 L 52.027344 322.972656 Z M 52.027344 52.027344 " fill-opacity="1" fill-rule="nonzero"/></g></g><path fill="#e8e8e8" d="M 260.832031 188.96875 C 260.832031 231.25 226.535156 265.507812 184.207031 265.507812 C 141.890625 265.507812 107.582031 231.25 107.582031 188.96875 C 107.582031 146.703125 141.890625 112.429688 184.207031 112.429688 C 226.535156 112.429688 260.832031 146.703125 260.832031 188.96875 " fill-opacity="1" fill-rule="nonzero"/><path fill="#d3d2d2" d="M 228.195312 188.96875 L 225.777344 188.96875 C 225.761719 200.445312 221.125 210.804688 213.597656 218.324219 C 206.066406 225.847656 195.695312 230.492188 184.207031 230.492188 C 172.730469 230.492188 162.347656 225.847656 154.816406 218.324219 C 147.300781 210.804688 142.648438 200.445312 142.648438 188.96875 C 142.648438 177.503906 147.300781 167.132812 154.816406 159.609375 C 162.347656 152.101562 172.730469 147.457031 184.207031 147.457031 C 195.695312 147.457031 206.066406 152.101562 213.597656 159.609375 C 221.125 167.132812 225.761719 177.503906 225.777344 188.96875 L 230.617188 188.96875 C 230.601562 163.367188 209.835938 142.625 184.207031 142.625 C 158.585938 142.625 137.808594 163.367188 137.808594 188.96875 C 137.808594 214.570312 158.585938 235.3125 184.207031 235.328125 C 209.835938 235.3125 230.601562 214.570312 230.617188 188.96875 L 228.195312 188.96875 " fill-opacity="1" fill-rule="nonzero"/><g clip-path="url(#237622c534)"><path fill="#d3d2d2" d="M 101.578125 110.796875 L 101.578125 146.753906 C 101.578125 148.253906 100.363281 149.46875 98.863281 149.46875 C 97.347656 149.46875 96.132812 148.253906 96.132812 146.753906 L 96.132812 110.796875 L 89.046875 110.796875 L 89.046875 146.753906 C 89.046875 148.253906 87.816406 149.46875 86.316406 149.46875 C 84.800781 149.46875 83.585938 148.253906 83.585938 146.753906 L 83.585938 110.796875 L 77.042969 110.796875 L 77.042969 148.375 C 77.042969 158.289062 81.921875 166.59375 88.519531 168.941406 L 88.519531 169.078125 L 85.25 260.09375 C 85.25 263.996094 88.410156 267.15625 92.304688 267.15625 C 96.210938 267.15625 99.375 263.996094 99.375 260.09375 L 96.699219 169.632812 C 96.699219 169.335938 96.699219 169.035156 96.683594 168.738281 C 102.984375 166.121094 107.582031 158.003906 107.582031 148.375 L 107.582031 110.796875 L 101.578125 110.796875 " fill-opacity="1" fill-rule="nonzero"/></g><g clip-path="url(#5399fcb392)"><path fill="#d3d2d2" d="M 280.121094 110.796875 C 263.371094 110.808594 262.667969 135.304688 262.667969 148.742188 C 262.667969 161.460938 269.726562 166.59375 276.324219 168.941406 L 276.324219 169.078125 L 273.050781 260.09375 C 273.050781 263.996094 276.214844 267.15625 280.121094 267.15625 C 284.015625 267.15625 287.179688 263.996094 287.179688 260.09375 L 284.503906 169.632812 C 284.503906 169.335938 284.503906 169.035156 284.488281 168.738281 C 290.789062 166.121094 297.574219 158.367188 297.574219 148.742188 C 297.574219 141.109375 296.859375 110.769531 280.121094 110.796875 " fill-opacity="1" fill-rule="nonzero"/></g></svg>